<svg id="Layer_5" enable-background="new 0 0 64 64" height="512" viewBox="0 0 64 64" width="512" xmlns="http://www.w3.org/2000/svg">
<g>
<g>
<g>
<circle cx="4" cy="36" fill="#ff826e" r="2"/>
</g>
<g>
<circle cx="4" cy="28" fill="#ff826e" r="2"/>
</g>
<g>
<circle cx="36" cy="4" fill="#ff826e" r="2"/>
</g>
<g>
<circle cx="28" cy="4" fill="#ff826e" r="2"/>
</g>
<g>
<circle cx="28" cy="60" fill="#ff826e" r="2"/>
</g>
<g>
<circle cx="36" cy="60" fill="#ff826e" r="2"/>
</g>
<g>
<circle cx="60" cy="36" fill="#ff826e" r="2"/>
</g>
<g>
<circle cx="60" cy="28" fill="#ff826e" r="2"/>
</g>
<g>
<circle cx="52" cy="12" fill="rgba(247, 147, 26)" r="10"/>
</g>
<g>
<circle cx="52" cy="52" fill="rgba(247, 147, 26)" r="10"/>
</g>
<g>
<circle cx="12" cy="52" fill="rgba(247, 147, 26)" r="10"/>
</g><g><circle cx="12" cy="12" fill="rgba(247, 147, 26)" r="10"/>
</g>
<g>
<path d="m43.83 30c.11.65.17 1.32.17 2s-.06 1.35-.17 2c-.84 5.03-4.8 8.99-9.83 9.83-.65.11-1.32.17-2 .17s-1.35-.06-2-.17c-5.03-.84-8.99-4.8-9.83-9.83-.11-.65-.17-1.32-.17-2s.06-1.35.17-2c.84-5.03 4.8-8.99 9.83-9.83.65-.11 1.32-.17 2-.17s1.35.06 2 .17c5.03.84 8.99 4.8 9.83 9.83z" fill="rgba(247, 147, 26)"/></g></g><g><path d="m11 15c-.551 0-1-.449-1-1h-2c0 1.654 1.346 3 3 3v2h2v-2h3v-3c0-1.654-1.346-3-3-3h-2c-.551 0-1-.449-1-1v-1h3c.551 0 1 .449 1 1h2c0-1.654-1.346-3-3-3v-2h-2v2h-3v3c0 1.654 1.346 3 3 3h2c.551 0 1 .449 1 1v1z"/><path d="m12 23c6.065 0 11-4.935 11-11s-4.935-11-11-11-11 4.935-11 11 4.935 11 11 11zm0-20c4.962 0 9 4.038 9 9s-4.038 9-9 9-9-4.038-9-9 4.038-9 9-9z"/><path d="m12 41c-6.065 0-11 4.935-11 11s4.935 11 11 11 11-4.935 11-11-4.935-11-11-11zm0 20c-4.962 0-9-4.038-9-9s4.038-9 9-9 9 4.038 9 9-4.038 9-9 9z"/><path d="m33 25v-2h-2v2h-2v14h2v2h2v-2c2.206 0 4-1.794 4-4 0-1.193-.525-2.267-1.357-3 .832-.733 1.357-1.807 1.357-3 0-2.206-1.794-4-4-4zm0 12h-2v-4h2c1.103 0 2 .897 2 2s-.897 2-2 2zm0-6h-2v-4h2c1.103 0 2 .897 2 2s-.897 2-2 2z"/><path d="m52.414 29h4.77c.414 1.161 1.514 2 2.816 2 1.654 0 3-1.346 3-3s-1.346-3-3-3c-1.302 0-2.402.839-2.816 2h-5.598l-2 2h-4.949c-1.13-4.76-4.877-8.506-9.637-9.637v-4.949l2-2v-5.598c1.161-.414 2-1.514 2-2.816 0-1.654-1.346-3-3-3s-3 1.346-3 3c0 1.302.839 2.402 2 2.816v4.77l-2 2v5.465c-.331-.026-.662-.051-1-.051s-.669.025-1 .051v-5.465l-2-2v-4.77c1.161-.414 2-1.514 2-2.816 0-1.654-1.346-3-3-3s-3 1.346-3 3c0 1.302.839 2.402 2 2.816v5.598l2 2v4.949c-4.76 1.13-8.506 4.877-9.637 9.637h-4.949l-2-2h-5.598c-.414-1.161-1.514-2-2.816-2-1.654 0-3 1.346-3 3s1.346 3 3 3c1.302 0 2.402-.839 2.816-2h4.77l2 2h5.465c-.026.331-.051.662-.051 1s.025.669.051 1h-5.465l-2 2h-4.77c-.414-1.161-1.514-2-2.816-2-1.654 0-3 1.346-3 3s1.346 3 3 3c1.302 0 2.402-.839 2.816-2h5.598l2-2h4.949c1.13 4.76 4.877 8.506 9.637 9.637v4.949l-2 2v5.598c-1.161.414-2 1.514-2 2.816 0 1.654 1.346 3 3 3s3-1.346 3-3c0-1.302-.839-2.402-2-2.816v-4.77l2-2v-5.465c.331.026.662.051 1 .051s.669-.025 1-.051v5.465l2 2v4.77c-1.161.414-2 1.514-2 2.816 0 1.654 1.346 3 3 3s3-1.346 3-3c0-1.302-.839-2.402-2-2.816v-5.598l-2-2v-4.949c4.76-1.13 8.506-4.877 9.637-9.637h4.949l2 2h5.598c.414 1.161 1.514 2 2.816 2 1.654 0 3-1.346 3-3s-1.346-3-3-3c-1.302 0-2.402.839-2.816 2h-4.77l-2-2h-5.465c.026-.331.051-.662.051-1s-.025-.669-.051-1h5.465zm7.586-2c.551 0 1 .449 1 1s-.449 1-1 1-1-.449-1-1 .449-1 1-1zm-24-24c.551 0 1 .449 1 1s-.449 1-1 1-1-.449-1-1 .449-1 1-1zm-8 0c.551 0 1 .449 1 1s-.449 1-1 1-1-.449-1-1 .449-1 1-1zm-24 26c-.551 0-1-.449-1-1s.449-1 1-1 1 .449 1 1-.449 1-1 1zm0 8c-.551 0-1-.449-1-1s.449-1 1-1 1 .449 1 1-.449 1-1 1zm24 24c-.551 0-1-.449-1-1s.449-1 1-1 1 .449 1 1-.449 1-1 1zm8 0c-.551 0-1-.449-1-1s.449-1 1-1 1 .449 1 1-.449 1-1 1zm24-26c.551 0 1 .449 1 1s-.449 1-1 1-1-.449-1-1 .449-1 1-1zm-28 8c-6.065 0-11-4.935-11-11s4.935-11 11-11 11 4.935 11 11-4.935 11-11 11z"/><path d="m52 23c6.065 0 11-4.935 11-11s-4.935-11-11-11-11 4.935-11 11 4.935 11 11 11zm0-20c4.962 0 9 4.038 9 9s-4.038 9-9 9-9-4.038-9-9 4.038-9 9-9z"/><path d="m52 41c-6.065 0-11 4.935-11 11s4.935 11 11 11 11-4.935 11-11-4.935-11-11-11zm0 20c-4.962 0-9-4.038-9-9s4.038-9 9-9 9 4.038 9 9-4.038 9-9 9z"/><path d="m52 19c2.206 0 4-1.794 4-4h-2c0 1.103-.897 2-2 2s-2-.897-2-2h2v-2h-2v-2h2v-2h-2c0-1.103.897-2 2-2s2 .897 2 2h2c0-2.206-1.794-4-4-4s-4 1.794-4 4h-2v2h2v2h-2v2h2c0 2.206 1.794 4 4 4z"/><path d="m56.707 46.707-1.414-1.414-3.293 3.293-3.293-3.293-1.414 1.414 3.707 3.707v.586h-2v2h2v2h-2v2h2v2h2v-2h2v-2h-2v-2h2v-2h-2v-.586z"/><path d="m8 50v1h-2v2h2v6h7v-2h-5v-4h2v-2h-2v-1c0-1.654 1.346-3 3-3h2v-2h-2c-2.757 0-5 2.243-5 5z"/></g></g></svg>